HIERARCHY
ROOT joint_Root
{
	OFFSET 0.0 0.0 0.0
	CHANNELS 6 Xposition Yposition Zposition Zrotation Xrotation Yrotation 
	JOINT Hips
	{
		OFFSET -17.1583 93.1646 452.98
		CHANNELS 6 Xposition Yposition Zposition Zrotation Xrotation Yrotation 
		JOINT Spine
		{
			OFFSET 15.7357 0.0 0.0
			CHANNELS 6 Xposition Yposition Zposition Zrotation Xrotation Yrotation 
			JOINT Chest
			{
				OFFSET 8.98455 -0.406207 0.0
				CHANNELS 6 Xposition Yposition Zposition Zrotation Xrotation Yrotation 
				JOINT Neck
				{
					OFFSET 16.3773 0.0 0.0
					CHANNELS 6 Xposition Yposition Zposition Zrotation Xrotation Yrotation 
					JOINT Head
					{
						OFFSET 6.45672 0.0 0.0
						CHANNELS 6 Xposition Yposition Zposition Zrotation Xrotation Yrotation 
						End Site
						{
							OFFSET 0.0 0.0 0.0
						}
					}
				}
				JOINT Shoulder_L
				{
					OFFSET 12.9942 -0.242716 4.98039
					CHANNELS 6 Xposition Yposition Zposition Zrotation Xrotation Yrotation 
					JOINT UpperArm_L
					{
						OFFSET 5.34809 0.0 0.0
						CHANNELS 6 Xposition Yposition Zposition Zrotation Xrotation Yrotation 
						JOINT LowerArm_L
						{
							OFFSET 24.3286 1.87007e-05 0.0
							CHANNELS 6 Xposition Yposition Zposition Zrotation Xrotation Yrotation 
							JOINT Hand_L
							{
								OFFSET 22.2916 0.0 0.0
								CHANNELS 6 Xposition Yposition Zposition Zrotation Xrotation Yrotation 
								End Site
								{
									OFFSET 0.0 0.0 0.0
								}
							}
						}
					}
				}
				JOINT Shoulder_R
				{
					OFFSET 12.9945 -0.242716 -4.98039
					CHANNELS 6 Xposition Yposition Zposition Zrotation Xrotation Yrotation 
					JOINT UpperArm_R
					{
						OFFSET -5.34813 0.0 0.0
						CHANNELS 6 Xposition Yposition Zposition Zrotation Xrotation Yrotation 
						JOINT LowerArm_R
						{
							OFFSET -24.3289 0.000322201 0.0
							CHANNELS 6 Xposition Yposition Zposition Zrotation Xrotation Yrotation 
							JOINT Hand_R
							{
								OFFSET -22.2915 -0.000108084 0.0
								CHANNELS 6 Xposition Yposition Zposition Zrotation Xrotation Yrotation 
								End Site
								{
									OFFSET 0.0 0.0 0.0
								}
							}
						}
					}
				}
			}
		}
		JOINT UpperLeg_L
		{
			OFFSET -2.19248 -6.46944 0.0
			CHANNELS 6 Xposition Yposition Zposition Zrotation Xrotation Yrotation 
			JOINT LowerLeg_L
			{
				OFFSET 39.0811 0.0 -1.23785e-05
				CHANNELS 6 Xposition Yposition Zposition Zrotation Xrotation Yrotation 
				JOINT Foot_L
				{
					OFFSET 40.9854 0.0 -1.26872e-05
					CHANNELS 6 Xposition Yposition Zposition Zrotation Xrotation Yrotation 
					JOINT Toes_L
					{
						OFFSET 11.7543 0.0 0.0
						CHANNELS 6 Xposition Yposition Zposition Zrotation Xrotation Yrotation 
						End Site
						{
							OFFSET 0.0 0.0 0.0
						}
					}
				}
			}
		}
		JOINT UpperLeg_R
		{
			OFFSET -2.19251 6.46944 0.0
			CHANNELS 6 Xposition Yposition Zposition Zrotation Xrotation Yrotation 
			JOINT LowerLeg_R
			{
				OFFSET -39.0811 -0.00228153 -0.0401928
				CHANNELS 6 Xposition Yposition Zposition Zrotation Xrotation Yrotation 
				JOINT Foot_R
				{
					OFFSET -40.9854 0.0 0.0
					CHANNELS 6 Xposition Yposition Zposition Zrotation Xrotation Yrotation 
					JOINT Toes_R
					{
						OFFSET -11.7543 0.0 0.0
						CHANNELS 6 Xposition Yposition Zposition Zrotation Xrotation Yrotation 
						End Site
						{
							OFFSET 0.0 0.0 0.0
						}
					}
				}
			}
		}
	}
}
MOTION
Frames:	4
Frame Time:	0.0333333
0.000000 0.000000 0.000000 0.000000 0.000000 -0.000000 0.545075 88.709100 496.794000 -92.191800 6.392090 173.872000 15.735700 0.000005 -0.000001 124.571000 89.229200 -125.064000 8.984550 -0.406207 -0.000000 -6.492890 0.934491 -0.934065 16.377300 -0.000001 -0.000001 3.504560 5.767240 -1.713360 6.456720 -0.000001 -0.000000 4.981000 7.745100 -5.269680 12.994200 -0.242716 4.980390 -93.070600 8.662640 -70.396400 5.348090 -0.000007 -0.000001 -69.924600 0.819500 6.524600 24.328600 0.000019 0.000005 7.354580 28.055500 -15.345800 22.291600 -0.000001 0.000005 45.001000 4.706910 13.033100 12.994500 -0.242716 -4.980390 88.818900 3.980090 -73.457200 -5.348130 -0.000001 -0.000004 -72.723000 24.155400 1.441700 -24.328900 0.000322 -0.000009 6.442680 9.487400 -34.418900 -22.291500 -0.000108 -0.000004 32.544700 5.425190 -3.775370 -2.192480 -6.469440 -0.000000 176.488000 -0.728279 -36.122600 39.081100 -0.000007 -0.000012 0.325123 -0.462043 35.133100 40.985400 -0.000006 -0.000013 2.414680 6.621950 -62.087400 11.754300 -0.000000 0.000003 0.001952 0.122717 -11.600400 -2.192510 6.469440 -0.000001 175.024000 9.225140 -177.159000 -39.081100 -0.002282 -0.040193 0.040160 -0.053060 34.793100 -40.985400 0.000008 0.000006 -7.828970 -13.112100 -67.361000 -11.754300 -0.000006 -0.000006 -0.025732 -0.197193 -24.642200
0.000000 0.000000 0.000000 0.000000 0.000000 -0.000000 -0.099471 89.103500 492.947000 -93.107300 7.139760 175.254000 15.735700 0.000005 -0.000001 114.803000 89.110500 -115.541000 8.984550 -0.406207 -0.000000 -6.145730 0.834617 -1.432920 16.377300 -0.000001 -0.000001 4.138470 5.971940 -1.478520 6.456720 -0.000001 -0.000000 5.586720 8.167880 -5.343490 12.994200 -0.242716 4.980390 -92.744800 7.858430 -70.676900 5.348090 -0.000007 -0.000001 -70.655400 0.212653 2.999630 24.328600 0.000019 0.000005 7.073110 28.962100 -14.372200 22.291600 -0.000001 0.000005 45.482000 4.698470 13.185100 12.994500 -0.242716 -4.980390 88.996200 3.306520 -73.102900 -5.348130 -0.000001 -0.000004 -73.471700 19.709200 2.092140 -24.328900 0.000322 -0.000009 5.330920 9.133960 -30.452200 -22.291500 -0.000108 -0.000004 34.518700 5.426620 -3.824100 -2.192480 -6.469440 -0.000000 175.267000 0.604289 -32.369800 39.081100 -0.000007 -0.000012 0.391648 -0.543879 35.758500 40.985400 -0.000006 -0.000013 2.988540 4.966110 -64.481700 11.754300 -0.000000 0.000003 0.001761 0.129102 -11.341400 -2.192510 6.469440 -0.000001 173.602000 8.836320 179.156000 -39.081100 -0.002282 -0.040193 0.102967 -0.105657 43.337800 -40.985400 0.000008 0.000006 -1.216220 -17.022500 -55.647700 -11.754300 -0.000006 -0.000006 -0.037078 -0.248246 -26.762500
0.000000 0.000000 0.000000 0.000000 0.000000 -0.000000 -0.698672 89.337100 489.432000 -93.940900 8.399100 177.157000 15.735700 0.000005 -0.000001 102.564000 88.750700 -103.516000 8.984550 -0.406207 -0.000000 -5.321260 0.651524 -1.875400 16.377300 -0.000001 -0.000001 4.631470 6.514780 -1.668190 6.456720 -0.000001 -0.000000 6.325070 8.911980 -5.168980 12.994200 -0.242716 4.980390 -92.544500 7.261230 -70.629000 5.348090 -0.000007 -0.000001 -71.047500 -1.965990 0.724827 24.328600 0.000019 0.000005 9.060680 28.786700 -18.322600 22.291600 -0.000001 0.000005 45.914000 4.713890 12.907400 12.994500 -0.242716 -4.980390 89.079900 2.992390 -72.900400 -5.348130 -0.000001 -0.000004 -73.174600 17.021700 2.377900 -24.328900 0.000322 -0.000009 4.513180 8.853470 -27.156900 -22.291500 -0.000108 -0.000004 36.608700 5.413330 -3.376060 -2.192480 -6.469440 -0.000000 173.621000 -0.314861 -28.252900 39.081100 -0.000007 -0.000012 0.482054 -0.657820 36.235300 40.985400 -0.000006 -0.000013 3.891110 4.471150 -67.154600 11.754300 -0.000000 0.000003 0.001755 0.129288 -11.333900 -2.192510 6.469440 -0.000001 172.530000 7.302480 173.763000 -39.081100 -0.002282 -0.040193 0.131659 -0.096068 53.201500 -40.985400 0.000008 0.000006 5.819840 -19.015800 -41.682000 -11.754300 -0.000006 -0.000006 -0.000023 -0.000385 -16.589400
0.000000 0.000000 0.000000 0.000000 0.000000 -0.000000 -1.209770 89.401300 486.424000 -94.427100 9.714750 178.663000 15.735700 0.000005 -0.000001 92.231200 88.359000 -93.245500 8.984550 -0.406207 -0.000000 -4.483740 0.236031 -2.020490 16.377300 -0.000001 -0.000001 4.889840 7.207250 -2.009630 6.456720 -0.000001 -0.000000 6.872840 9.811780 -5.317610 12.994200 -0.242716 4.980390 -92.642200 7.484020 -70.490600 5.348090 -0.000007 -0.000001 -70.331100 -4.132910 -0.383293 24.328600 0.000019 0.000005 13.586600 28.656000 -26.745700 22.291600 -0.000001 0.000005 46.687900 4.715210 12.882500 12.994500 -0.242716 -4.980390 89.103500 2.913850 -72.889900 -5.348130 -0.000001 -0.000004 -72.194100 14.231800 2.765850 -24.328900 0.000322 -0.000009 4.085370 8.773560 -25.097800 -22.291500 -0.000108 -0.000004 38.203200 5.419830 -3.593230 -2.192480 -6.469440 -0.000000 172.402000 -2.134810 -24.940100 39.081100 -0.000007 -0.000012 0.556096 -0.746102 36.700000 40.985400 -0.000006 -0.000013 4.797210 4.470100 -69.434200 11.754300 -0.000000 0.000003 0.001648 0.132526 -11.202600 -2.192510 6.469440 -0.000001 172.073000 4.869480 167.297000 -39.081100 -0.002282 -0.040193 0.167252 -0.085197 62.558300 -40.985400 0.000008 0.000006 6.399260 -17.073200 -34.597300 -11.754300 -0.000006 -0.000006 0.000481 0.159140 -10.119100
